<svg width="20" height="20" viewBox="0 0 20 20" fill="none" xmlns="http://www.w3.org/2000/svg"><rect width="20" height="20" rx="2.286" fill="#E60000"/><path d="M11.166 5.891c-.063 0-.126 0-.189-.023l-6.06-1.456a.793.793 0 01-.614-.78c0-.377.236-.692.606-.787l6.037-1.566a.806.806 0 011.007.771l.024 3.023a.806.806 0 01-.803.81l-.008.008zm-.134-4.266L4.995 3.192a.439.439 0 00-.338.448c0 .166.094.378.346.441l6.06 1.456c.135.032.276 0 .394-.086a.459.459 0 00.174-.363l-.024-3.022a.444.444 0 00-.181-.362.438.438 0 00-.394-.079z" fill="#fff"/><path d="M14.543 2.838H5.098c-.679 0-1.228.55-1.228 1.228v12.94c0 .678.55 1.227 1.228 1.227h9.445c.678 0 1.228-.55 1.228-1.227V4.066c0-.678-.55-1.228-1.228-1.228z" fill="#fff"/><path d="M7.623 16.162a.695.695 0 01-.087.047.475.475 0 01-.118.016c-.047 0-.11 0-.157-.023a.13.13 0 01-.079-.08c-.047-.149-.086-.275-.118-.361a2.501 2.501 0 01-.07-.244h-.016c0 .102-.008.197-.016.275v.48c0 .08 0 .174-.008.268a1.271 1.271 0 01-.087.024c-.039 0-.07.008-.11.008a.33.33 0 01-.173-.04c-.04-.023-.063-.07-.063-.134l.07-1.306a.278.278 0 01.087-.071.434.434 0 01.197-.04c.087 0 .165.016.213.048.055.024.086.07.11.134.016.039.031.086.047.141.016.055.04.11.055.166.016.055.04.11.055.173.016.055.032.102.048.15h.015c.04-.142.079-.284.126-.418a5.87 5.87 0 01.11-.338.267.267 0 01.095-.032.7.7 0 01.134-.016c.086 0 .15.016.204.04.055.024.087.063.095.102 0 .032.016.087.023.158a11.908 11.908 0 01.048.519 43.99 43.99 0 00.047.543c0 .079.008.134.008.173a.486.486 0 01-.095.04.475.475 0 01-.118.015.411.411 0 01-.165-.031c-.047-.024-.07-.063-.07-.134a45.787 45.787 0 00-.025-.504c0-.15 0-.275-.007-.377h-.016a5.47 5.47 0 01-.071.251l-.118.386v-.008zm.968-.936a.25.25 0 01.063-.174.245.245 0 01.173-.063h.85c.016.016.024.048.032.071a.396.396 0 01.015.095c0 .063-.015.11-.047.141a.155.155 0 01-.11.04h-.543v.236h.575c.015.016.023.047.031.07a.394.394 0 01.016.095c0 .063-.016.11-.04.142a.156.156 0 01-.11.04h-.472v.267h.661c.016.016.024.047.032.07a.394.394 0 01.015.095c0 .063-.015.11-.047.142a.156.156 0 01-.11.04h-.748a.245.245 0 01-.173-.064.245.245 0 01-.063-.173V15.21v.016zm2.81 1.267a.318.318 0 01-.102.055.492.492 0 01-.166.024.438.438 0 01-.18-.032c-.056-.016-.103-.063-.142-.134l-.252-.52a3.014 3.014 0 00-.071-.149c-.024-.047-.04-.102-.063-.165h-.016c0 .094.008.189.008.283v.685c-.016 0-.047.008-.086.016h-.213a.1.1 0 01-.07-.032c-.017-.015-.032-.04-.048-.063a.35.35 0 01-.016-.102v-1.283a.234.234 0 01.11-.079.506.506 0 01.158-.023c.055 0 .126.008.18.031.056.016.103.063.143.134l.26.52c.023.055.046.102.07.149.024.047.04.102.063.165h.016c0-.094-.008-.189-.016-.283v-.693c.016 0 .047-.008.087-.015h.118a.33.33 0 01.173.039c.04.024.063.079.063.165v1.323l-.008-.016zm1.716-.52a.652.652 0 01-.047.252.58.58 0 01-.134.197.672.672 0 01-.22.126.836.836 0 01-.292.047.837.837 0 01-.291-.047.673.673 0 01-.22-.126.6.6 0 01-.142-.197.681.681 0 01-.047-.252v-.984c.015 0 .047 0 .086-.015.04 0 .079-.008.118-.008.04 0 .071 0 .103.008.031 0 .055.015.078.031.024.016.04.04.048.063a.364.364 0 01.015.11v.78c0 .078.024.15.063.188a.231.231 0 00.174.071.22.22 0 00.173-.07c.047-.048.063-.11.063-.19v-.975c.015 0 .047 0 .086-.016.04 0 .079-.008.118-.008.04 0 .071 0 .103.008.031 0 .055.016.078.031.024.016.04.04.048.063a.364.364 0 01.015.11v.788l.024.015zm-5.431-3.186c.016.015.024.047.032.078a.4.4 0 01.015.103c0 .07-.015.118-.047.15-.031.03-.07.038-.118.038H7.01v.3h.583c.016.015.023.047.031.078a.398.398 0 01.016.103c0 .07-.016.118-.047.15-.032.03-.071.038-.118.038H7.01v.567c-.015 0-.047.008-.094.016-.04 0-.079.008-.126.008s-.079 0-.11-.008c-.032 0-.055-.016-.079-.032a.122.122 0 01-.047-.063.41.41 0 01-.016-.11v-1.157c0-.078.024-.133.063-.18.047-.048.102-.064.181-.064h.89l.015-.015zm.19.802c0-.141.023-.26.062-.37a.731.731 0 01.181-.267.85.85 0 01.598-.22.89.89 0 01.33.055.77.77 0 01.45.432c.047.11.063.229.063.37 0 .142-.024.26-.063.37a.647.647 0 01-.181.268.768.768 0 01-.268.165.925.925 0 01-.339.055.848.848 0 01-.606-.22.786.786 0 01-.173-.268 1.058 1.058 0 01-.063-.362l.008-.008zm.48 0c0 .166.03.284.102.362a.33.33 0 00.267.118.33.33 0 00.268-.118.583.583 0 00.102-.362c0-.157-.031-.283-.102-.362a.32.32 0 00-.268-.118.33.33 0 00-.267.118.568.568 0 00-.103.362zm1.4 0c0-.141.024-.26.063-.37a.732.732 0 01.181-.267.85.85 0 01.598-.22c.119 0 .229.015.331.055a.77.77 0 01.449.432c.047.11.063.229.063.37 0 .142-.024.26-.063.37a.646.646 0 01-.181.268.768.768 0 01-.268.165.925.925 0 01-.338.055.848.848 0 01-.606-.22.787.787 0 01-.174-.268 1.059 1.059 0 01-.063-.362l.008-.008zm.48 0c0 .166.032.284.103.362a.33.33 0 00.267.118.33.33 0 00.268-.118.583.583 0 00.102-.362c0-.157-.031-.283-.102-.362a.32.32 0 00-.268-.118.33.33 0 00-.267.118.568.568 0 00-.103.362zm1.937.465c.015 0 .047 0 .07.008h.08a.524.524 0 00.165-.024.305.305 0 00.133-.087.43.43 0 00.087-.141.603.603 0 00.031-.213c0-.157-.039-.283-.11-.362a.39.39 0 00-.299-.126h-.079c-.023 0-.047 0-.078.008v.937zm.15.385h-.103c-.04 0-.079 0-.126-.008-.04 0-.087-.015-.126-.023-.04 0-.079-.016-.118-.032-.094-.039-.15-.102-.15-.196v-1.244c0-.04.008-.063.032-.086a.156.156 0 01.087-.048c.078-.023.157-.04.243-.047.087-.008.166-.016.229-.016.141 0 .267.016.378.047a.72.72 0 01.48.426c.047.11.063.236.063.377 0 .142-.024.268-.063.37a.702.702 0 01-.465.425c-.11.04-.236.055-.362.055z" fill="#002866"/><path d="M13.117 9.205c0 .449-.236.858-.63 1.086l-2.07 1.197c-.386.22-.866.22-1.251 0l-2.07-1.197a1.257 1.257 0 01-.63-1.086V6.82c0-.448.236-.858.63-1.086l2.07-1.196c.385-.22.865-.22 1.251 0l2.07 1.196c.386.22.63.638.63 1.086v2.385z" fill="#E60000"/><path d="M12.062 7.749c.205-.402.292-.85.087-1.055-.205-.205-.653-.118-1.055.087-.401.204-.685.511-.732.834-.079.511 0 .724-.283.944a378.63 378.63 0 00-2.582 2.26c-.267.235-.315.456-.126.652.197.19.417.142.653-.125a675.16 675.16 0 002.26-2.582c.22-.275.432-.205.944-.283.323-.048.622-.33.834-.732z" fill="#fff"/><path d="M9.35 7.552c-.158-.173-1.425-1.008-1.496-1.055-.047-.031-.095.024-.055.063.078.079.873.834 1.007.952.126.118.158.181.087.244-.063.063-.181-.023-.236-.063-.055-.047-1.11-.913-1.165-.952-.071-.055-.095-.07-.118-.04-.024.024-.016.056.039.119.04.047.913 1.11.952 1.165.048.055.134.165.063.236-.063.063-.126.04-.244-.087-.118-.126-.881-.929-.952-1.007-.04-.04-.094.008-.063.055.047.07.89 1.338 1.055 1.495.33.3.755.008 1.094.236.102-.086.197-.173.275-.236-.252-.338.055-.771-.252-1.11l.008-.015zm2.456 3.023c-.181-.15-1.024-.882-1.59-1.37a8.833 8.833 0 00-.3.346c.489.567 1.197 1.393 1.346 1.567.237.275.551.692.898.354.346-.346-.079-.661-.354-.897z" fill="#fff"/></svg>